Coordinates
version=1
nRows=7
nColumns=63
inDegrees=yes

Units are S.I. units (second, meters, Newtons, ...)
If the header above contains a line with 'inDegrees', this indicates whether rotational values are in degrees (yes) or radians (no).

endheader
time	pelvis_tilt	pelvis_list	pelvis_rotation	pelvis_tx	pelvis_ty	pelvis_tz	hip_flexion_r	hip_adduction_r	hip_rotation_r	knee_angle_r	knee_angle_r_beta	ankle_angle_r	subtalar_angle_r	mtp_angle_r	hip_flexion_l	hip_adduction_l	hip_rotation_l	knee_angle_l	knee_angle_l_beta	ankle_angle_l	subtalar_angle_l	mtp_angle_l	L5_S1_Flex_Ext	L5_S1_Lat_Bending	L5_S1_axial_rotation	L4_L5_Flex_Ext	L4_L5_Lat_Bending	L4_L5_axial_rotation	L3_L4_Flex_Ext	L3_L4_Lat_Bending	L3_L4_axial_rotation	L2_L3_Flex_Ext	L2_L3_Lat_Bending	L2_L3_axial_rotation	L1_L2_Flex_Ext	L1_L2_Lat_Bending	L1_L2_axial_rotation	L1_T12_Flex_Ext	L1_T12_Lat_Bending	L1_T12_axial_rotation	Abs_r3	Abs_r2	Abs_r1	Abs_t1	Abs_t2	neck_flexion	neck_bending	neck_rotation	arm_flex_r	arm_add_r	arm_rot_r	elbow_flex_r	pro_sup_r	wrist_flex_r	wrist_dev_r	arm_flex_l	arm_add_l	arm_rot_l	elbow_flex_l	pro_sup_l	wrist_flex_l	wrist_dev_l
      8.36206897	      0.85598011	    -21.32703420	     96.75599233	      0.17670223	      0.43100974	      1.08229434	     32.99033404	     -2.35072541	    -11.87260556	     14.60553077	      0.25491460	     39.23763906	     12.80793873	      0.00000000	     35.12773982	      1.96081368	      5.04613686	     17.03549450	      0.29732547	     35.94172853	     -8.27302129	      0.00000000	     -0.01680029	     -0.26808871	     -1.79442759	     -0.03119983	     -0.35655798	     -1.90657931	     -0.02760120	     -0.65183088	     -1.90657931	     -0.01920106	     -0.65183088	     -1.57012414	     -0.01560075	     -0.54668649	     -1.45797242	     -0.00959969	     -0.41526941	     -1.34582069	     -0.12000283	     -3.03267308	     -9.98006793	      0.00000000	      0.00000000	     26.72734576	     -3.83543512	    -20.77894603	      3.25206946	    -11.75023292	     52.77115107	     70.72574192	     65.27486544	     -4.68461574	      8.11283798	    -12.54699525	    -15.53344803	     23.27564763	     88.67759438	     75.56341770	    -10.86471665	      8.73701574
      8.37931034	      0.92289095	    -21.47111210	     96.56727777	      0.17735334	      0.43107758	      1.08264353	     33.03871660	     -2.24252238	    -12.51692635	     14.33998595	      0.25027997	     39.31139442	     13.99766619	      0.00000000	     35.31237610	      1.83091478	      5.28734947	     17.16427372	      0.29957309	     35.84828936	     -8.84664089	      0.00000000	     -0.01892894	     -0.26702934	     -1.69101543	     -0.03515293	     -0.35514902	     -1.79670389	     -0.03109835	     -0.64925513	     -1.79670389	     -0.02163388	     -0.64925513	     -1.47963850	     -0.01757741	     -0.54452623	     -1.37395003	     -0.01081600	     -0.41362844	     -1.26826157	     -0.13520751	     -3.02068928	     -9.40492050	      0.00000000	      0.00000000	     26.58629269	     -4.13964342	    -22.33118763	      3.08194767	    -11.77626044	     52.46958632	     70.74132510	     65.11101807	     -4.56164179	      8.15934397	    -12.42008096	    -15.63114473	     23.71042469	     88.77605873	     75.53446257	    -11.54873187	      8.15328670
      8.39655172	      1.04617003	    -21.61840109	     96.47657143	      0.17799443	      0.43112249	      1.08295747	     33.09343611	     -2.06318719	    -12.78408825	     14.06107765	      0.24541210	     39.30648686	     14.53100456	      0.00000000	     35.53169877	      1.54762230	      4.64092306	     17.30709554	      0.30206580	     36.09362433	     -7.91452504	      0.00000000	     -0.01755965	     -0.26100160	     -1.57674043	     -0.03261002	     -0.34713212	     -1.67528671	     -0.02884875	     -0.63459928	     -1.67528671	     -0.02006892	     -0.63459928	     -1.37964788	     -0.01630589	     -0.53223446	     -1.28110160	     -0.01003358	     -0.40429147	     -1.18255533	     -0.12542681	     -2.95250227	     -8.76935727	      0.00000000	      0.00000000	     26.49754971	     -4.59296427	    -23.85706271	      2.69542998	    -11.72522022	     51.75069886	     70.70674171	     66.30499382	     -4.14233038	      8.35448933	    -12.24362431	    -15.63818409	     23.91018669	     88.75148236	     75.79165312	    -11.04700140	      7.81947845
      8.41379310	      0.97287169	    -21.67492285	     96.14110863	      0.17928783	      0.43127939	      1.08318319	     33.12490051	     -1.90234766	    -12.51204364	     13.89958402	      0.24259351	     39.24506375	     14.60088401	      0.00000000	     35.64929391	      1.18039005	      3.06121079	     17.46820035	      0.30487761	     36.66484678	     -5.86145114	      0.00000000	     -0.02514709	     -0.28571145	     -1.42825515	     -0.04670065	     -0.37999623	     -1.51752109	     -0.04131415	     -0.69467883	     -1.51752109	     -0.02874061	     -0.69467883	     -1.24972325	     -0.02335158	     -0.58262280	     -1.16045731	     -0.01436905	     -0.44256704	     -1.07119136	     -0.17962313	     -3.23202511	     -7.94352665	      0.00000000	      0.00000000	     26.45943999	     -4.72770196	    -25.27840284	      2.34734714	    -11.44295899	     50.95579162	     70.46478865	     68.22544364	     -3.33214242	      8.59756810	    -12.05605162	    -15.82868041	     24.10411456	     88.81959681	     75.82931641	    -10.42613725	      7.83860787
      8.43103448	      0.78986391	    -21.75070417	     95.97359557	      0.17976465	      0.43143174	      1.08360911	     33.21604873	     -2.03441321	    -12.66252756	     13.89489222	      0.24251162	     39.24932926	     14.96688672	      0.00000000	     35.63119113	      1.43754855	      4.15766464	     17.27635934	      0.30152935	     36.22672152	     -7.22382507	      0.00000000	     -0.02749465	     -0.31741108	     -1.30914895	     -0.05106031	     -0.42215674	     -1.39097076	     -0.04517096	     -0.77175331	     -1.39097076	     -0.03142364	     -0.77175331	     -1.14550533	     -0.02553153	     -0.64726468	     -1.06368352	     -0.01571044	     -0.49166977	     -0.98186171	     -0.19639154	     -3.59061765	     -7.28109372	      0.00000000	      0.00000000	     26.51944295	     -4.91309846	    -26.56358754	      2.02295126	    -11.28920833	     50.34938035	     70.40985643	     69.50167804	     -3.02907055	      8.84760869	    -11.69564266	    -16.05742183	     24.75994800	     88.81028546	     75.40971963	    -10.89928837	      7.66370500
      8.44827586	      0.71591647	    -21.73937817	     95.87715612	      0.18043889	      0.43156525	      1.08405743	     33.21191069	     -2.01919872	    -12.47988722	     13.86217940	      0.24194067	     39.09464755	     14.77700853	      0.00000000	     35.72350297	      1.29741408	      3.27077770	     17.39642817	      0.30362495	     36.60598365	     -5.68051923	      0.00000000	     -0.03822709	     -0.33846501	     -1.21173961	     -0.07099153	     -0.45015846	     -1.28747334	     -0.06280329	     -0.82294382	     -1.28747334	     -0.04368974	     -0.82294382	     -1.06027216	     -0.03549768	     -0.69019784	     -0.98453843	     -0.02184296	     -0.52428230	     -0.90880471	     -0.27305229	     -3.82878386	     -6.73933220	      0.00000000	      0.00000000	     26.63142538	     -5.11570221	    -27.60443706	      1.81946859	    -11.18823432	     50.03725503	     70.44235380	     69.85149347	     -3.21284875	      9.03899054	    -11.35562238	    -16.24497531	     25.16686898	     88.73405752	     75.44986562	    -10.67627986	      7.69927718
      8.46551724	      0.65886599	    -21.73675888	     95.87604065	      0.18091473	      0.43163554	      1.08448350	     33.15494431	     -2.07508557	    -12.70665106	     13.76409663	      0.24022880	     39.05029358	     15.02359512	      0.00000000	     35.78898323	      1.23538692	      2.72884709	     17.40765895	      0.30382096	     36.76914724	     -4.52253634	      0.00000000	     -0.04208456	     -0.35596697	     -1.13859394	     -0.07815523	     -0.47343607	     -1.20975606	     -0.06914072	     -0.86549808	     -1.20975606	     -0.04809844	     -0.86549808	     -0.99626970	     -0.03907972	     -0.72588784	     -0.92510758	     -0.02404712	     -0.55139283	     -0.85394546	     -0.30060578	     -4.02676951	     -6.33251792	      0.00000000	      0.00000000	     26.76644457	     -5.41009945	    -28.49463028	      1.57874690	    -11.09156511	     49.54996772	     70.53599057	     70.22131997	     -3.06052318	      9.28102429	    -10.95654779	    -16.51491374	     25.75151974	     88.61558068	     74.47090781	    -10.32638320	      7.67908771
